<svg xmlns="http://www.w3.org/2000/svg" viewBox="0 0 56 56" fill="none">
  <path
    d="M0 18C0 8.05888 8.05888 0 18 0H38C47.9411 0 56 8.05888 56 18V38C56 47.9411 47.9411 56 38 56H18C8.05888 56 0 47.9411 0 38V18Z"
    fill="#FAFF00" />
  <path fill-rule="evenodd" clip-rule="evenodd"
    d="M14.7565 21.8071C13.3119 21.8071 11.9964 22.6376 11.3769 23.9407L7.06976 32.9968L9.01274 34.6666L18.2844 31.1709L19.7583 34.2706L22.4439 32.9968C22.4439 32.9968 19.9919 27.8412 18.1368 23.9407C17.5159 22.6376 16.2004 21.8071 14.7565 21.8071ZM11.5166 30.5655L14.0619 25.2145C14.1889 24.9467 14.4597 24.776 14.7565 24.776C15.0532 24.776 15.3234 24.9467 15.4512 25.2145L17.0083 28.4883L11.5166 30.5655ZM42.2882 21.3333H42.245C38.5599 21.3333 35.5689 24.3208 35.5689 28C35.5689 31.6799 38.5606 34.6666 42.245 34.6666H42.2882C45.9532 34.6434 48.9216 31.6652 48.9216 28C48.9216 24.3347 45.9532 21.3559 42.2882 21.3333ZM42.2702 31.8712H42.245C40.105 31.8712 38.3683 30.1363 38.3683 28C38.3683 25.8637 40.1057 24.1287 42.245 24.1287H42.2702C44.3981 24.1421 46.1223 25.8716 46.1223 28C46.1223 30.1283 44.3988 31.8579 42.2702 31.8712ZM35.5223 23.0809C35.5223 23.0809 33.0702 28.2359 31.2151 32.137C30.5956 33.44 29.2801 34.2706 27.8355 34.2706C26.3909 34.2706 25.0755 33.44 24.4559 32.137C22.6007 28.2365 20.1488 23.0809 20.1488 23.0809L22.8344 21.8071C22.8344 21.8071 25.2863 26.9621 27.1415 30.8632C27.2686 31.131 27.5394 31.3018 27.8361 31.3018C28.133 31.3018 28.4031 31.131 28.5309 30.8632C30.386 26.9621 32.838 21.8071 32.838 21.8071L35.5223 23.0809Z"
    fill="#2E1A47" />
</svg>